<svg width="191" height="26" viewBox="0 0 191 26" fill="none" xmlns="http://www.w3.org/2000/svg">
<path d="M0.52 0.399999H2.2V18.544H12.672V20H0.52V0.399999ZM13.9644 6.084H15.5884V20H13.9644V6.084ZM13.9644 18.628H15.5884V20H13.9644V18.628ZM13.9644 6.084H15.5884V7.456H13.9644V6.084ZM13.9644 0.511999H15.5884V3.06H13.9644V0.511999ZM18.6686 6.084H20.2926V9.5L20.1246 9.192C20.4046 8.10933 20.9459 7.26933 21.7486 6.672C22.5699 6.07467 23.6339 5.776 24.9406 5.776C25.8179 5.776 26.5833 5.90667 27.2366 6.168C27.9086 6.41067 28.4779 6.76533 28.9446 7.232C29.4299 7.736 29.7473 8.352 29.8966 9.08C30.0459 9.78933 30.1206 10.62 30.1206 11.572V20H28.4406V11.852C28.4406 10.956 28.3939 10.2373 28.3006 9.696C28.2073 9.136 27.9646 8.65067 27.5726 8.24C27.2179 7.82933 26.7886 7.54933 26.2846 7.4C25.7993 7.25067 25.2206 7.176 24.5486 7.176C23.4846 7.176 22.5046 7.54 21.6086 8.268C20.7313 8.97733 20.2926 10.2933 20.2926 12.216V20H18.6686V6.084ZM38.7085 20.336C37.7378 20.336 36.8512 20.1867 36.0485 19.888C35.2645 19.5893 34.5832 19.1413 34.0045 18.544C33.4072 17.9093 32.9498 17.144 32.6325 16.248C32.3338 15.3333 32.1845 14.2693 32.1845 13.056C32.1845 11.8987 32.3432 10.8533 32.6605 9.92C32.9965 8.98667 33.4818 8.19333 34.1165 7.54C34.6952 6.96133 35.3672 6.52267 36.1325 6.224C36.9165 5.92533 37.7472 5.776 38.6245 5.776C39.6512 5.776 40.5938 5.99067 41.4525 6.42C42.3298 6.84933 43.0485 7.47467 43.6085 8.296C44.0565 8.93067 44.3925 9.696 44.6165 10.592C44.8405 11.4693 44.9338 12.384 44.8965 13.336H33.9205C33.9392 15.3147 34.3685 16.752 35.2085 17.648C36.0672 18.544 37.2432 18.992 38.7365 18.992C40.0432 18.992 41.0698 18.684 41.8165 18.068C42.5632 17.4333 43.0392 16.556 43.2445 15.436L44.7845 15.604C44.5045 17.0973 43.8325 18.264 42.7685 19.104C41.7232 19.9253 40.3698 20.336 38.7085 20.336ZM43.2445 12.02C43.2072 11.46 43.0952 10.9093 42.9085 10.368C42.7405 9.82667 42.5165 9.34133 42.2365 8.912C41.8445 8.296 41.3312 7.848 40.6965 7.568C40.0805 7.26933 39.3805 7.12 38.5965 7.12C37.8872 7.12 37.2432 7.24133 36.6645 7.484C36.0858 7.708 35.6192 8.03467 35.2645 8.464C34.8725 8.89333 34.5645 9.416 34.3405 10.032C34.1352 10.648 34.0045 11.3107 33.9485 12.02H43.2445ZM50.8336 20.336C49.4709 20.336 48.3509 19.9813 47.4736 19.272C46.6149 18.5627 46.1856 17.6107 46.1856 16.416C46.1856 15.576 46.3723 14.8853 46.7456 14.344C47.1376 13.8027 47.6509 13.3827 48.2856 13.084C48.9203 12.7853 49.6669 12.552 50.5256 12.384L55.8736 11.348V10.9C55.8549 10.172 55.7896 9.584 55.6776 9.136C55.5843 8.688 55.3883 8.31467 55.0896 8.016C54.7909 7.71733 54.3896 7.49333 53.8856 7.344C53.4003 7.19467 52.8309 7.12 52.1776 7.12C50.7963 7.12 49.7976 7.39067 49.1816 7.932C48.5656 8.45467 48.2576 9.34133 48.2576 10.592L46.6616 10.368C46.6429 9.62133 46.7643 8.94933 47.0256 8.352C47.3056 7.736 47.6883 7.24133 48.1736 6.868C48.6589 6.49467 49.2469 6.224 49.9376 6.056C50.6469 5.86933 51.4123 5.776 52.2336 5.776C53.3723 5.776 54.3243 5.944 55.0896 6.28C55.8736 6.59733 56.4616 7.10133 56.8536 7.792C57.2456 8.464 57.4416 9.332 57.4416 10.396V17.732C57.4416 18.1427 57.4883 18.4227 57.5816 18.572C57.6936 18.7027 57.9363 18.768 58.3096 18.768C58.6269 18.768 58.9816 18.7213 59.3736 18.628L59.4016 19.972C58.9349 20.0653 58.4869 20.112 58.0576 20.112C57.2923 20.112 56.7323 19.9067 56.3776 19.496C56.0229 19.0853 55.8643 18.376 55.9016 17.368L56.0696 17.2C55.7336 18.152 55.1269 18.9173 54.2496 19.496C53.3723 20.056 52.2336 20.336 50.8336 20.336ZM51.1136 18.992C52.6256 18.992 53.7923 18.6187 54.6136 17.872C55.4536 17.1253 55.8736 16.108 55.8736 14.82V11.796L56.6576 12.412L50.7216 13.672C49.7323 13.8773 49.0043 14.176 48.5376 14.568C48.0896 14.9413 47.8656 15.5293 47.8656 16.332C47.8656 17.1907 48.1643 17.8533 48.7616 18.32C49.3589 18.768 50.1429 18.992 51.1136 18.992ZM69.5455 20.336C68.4255 20.336 67.4641 20.1307 66.6615 19.72C65.8588 19.3093 65.2428 18.684 64.8135 17.844C64.4028 17.004 64.1975 15.968 64.1975 14.736V12.944H65.8775V14.428C65.8775 15.884 66.1388 16.9853 66.6615 17.732C67.2028 18.4787 68.1921 18.852 69.6295 18.852C70.5068 18.852 71.1881 18.6933 71.6735 18.376C72.1775 18.04 72.5228 17.5827 72.7095 17.004C72.8961 16.4253 72.9895 15.716 72.9895 14.876V0.399999H74.6695V15.044C74.6695 16.0333 74.5015 16.92 74.1655 17.704C73.8481 18.488 73.3068 19.1227 72.5415 19.608C71.7761 20.0933 70.7775 20.336 69.5455 20.336ZM83.5019 20.336C82.5313 20.336 81.6446 20.1867 80.8419 19.888C80.0579 19.5893 79.3766 19.1413 78.7979 18.544C78.2006 17.9093 77.7433 17.144 77.4259 16.248C77.1273 15.3333 76.9779 14.2693 76.9779 13.056C76.9779 11.8987 77.1366 10.8533 77.4539 9.92C77.7899 8.98667 78.2753 8.19333 78.9099 7.54C79.4886 6.96133 80.1606 6.52267 80.9259 6.224C81.7099 5.92533 82.5406 5.776 83.4179 5.776C84.4446 5.776 85.3873 5.99067 86.2459 6.42C87.1233 6.84933 87.8419 7.47467 88.4019 8.296C88.8499 8.93067 89.1859 9.696 89.4099 10.592C89.6339 11.4693 89.7273 12.384 89.6899 13.336H78.7139C78.7326 15.3147 79.1619 16.752 80.0019 17.648C80.8606 18.544 82.0366 18.992 83.5299 18.992C84.8366 18.992 85.8633 18.684 86.6099 18.068C87.3566 17.4333 87.8326 16.556 88.0379 15.436L89.5779 15.604C89.2979 17.0973 88.6259 18.264 87.5619 19.104C86.5166 19.9253 85.1633 20.336 83.5019 20.336ZM88.0379 12.02C88.0006 11.46 87.8886 10.9093 87.7019 10.368C87.5339 9.82667 87.3099 9.34133 87.0299 8.912C86.6379 8.296 86.1246 7.848 85.4899 7.568C84.8739 7.26933 84.1739 7.12 83.3899 7.12C82.6806 7.12 82.0366 7.24133 81.4579 7.484C80.8793 7.708 80.4126 8.03467 80.0579 8.464C79.6659 8.89333 79.3579 9.416 79.1339 10.032C78.9286 10.648 78.7979 11.3107 78.7419 12.02H88.0379ZM90.0049 6.084H91.7409L94.3169 14.008C94.4103 14.2693 94.4663 14.4653 94.4849 14.596C94.5223 14.708 94.5876 14.8853 94.6809 15.128C95.0169 16.2107 95.3436 17.2933 95.6609 18.376H95.6889C95.8383 17.816 95.9503 17.3493 96.0249 16.976C96.1183 16.584 96.2303 16.1173 96.3609 15.576C96.4356 15.2213 96.5009 14.9413 96.5569 14.736C96.6129 14.5307 96.6783 14.288 96.7529 14.008L98.8249 6.084H100.533L102.661 14.008C102.754 14.344 102.829 14.6613 102.885 14.96C102.96 15.24 103.044 15.576 103.137 15.968C103.324 16.7707 103.51 17.5733 103.697 18.376C103.902 17.6853 104.098 17.004 104.285 16.332C104.434 15.8467 104.556 15.4547 104.649 15.156C104.761 14.8387 104.892 14.456 105.041 14.008L107.645 6.084H109.381L104.565 20H102.829L100.533 11.516C100.16 10.1347 99.8703 8.94 99.6649 7.932C99.3663 9.31333 99.0863 10.4893 98.8249 11.46L96.5849 20H94.7929L90.0049 6.084ZM116.235 20.336C115.264 20.336 114.377 20.1867 113.575 19.888C112.791 19.5893 112.109 19.1413 111.531 18.544C110.933 17.9093 110.476 17.144 110.159 16.248C109.86 15.3333 109.711 14.2693 109.711 13.056C109.711 11.8987 109.869 10.8533 110.187 9.92C110.523 8.98667 111.008 8.19333 111.643 7.54C112.221 6.96133 112.893 6.52267 113.659 6.224C114.443 5.92533 115.273 5.776 116.151 5.776C117.177 5.776 118.12 5.99067 118.979 6.42C119.856 6.84933 120.575 7.47467 121.135 8.296C121.583 8.93067 121.919 9.696 122.143 10.592C122.367 11.4693 122.46 12.384 122.423 13.336H111.447C111.465 15.3147 111.895 16.752 112.735 17.648C113.593 18.544 114.769 18.992 116.263 18.992C117.569 18.992 118.596 18.684 119.343 18.068C120.089 17.4333 120.565 16.556 120.771 15.436L122.311 15.604C122.031 17.0973 121.359 18.264 120.295 19.104C119.249 19.9253 117.896 20.336 116.235 20.336ZM120.771 12.02C120.733 11.46 120.621 10.9093 120.435 10.368C120.267 9.82667 120.043 9.34133 119.763 8.912C119.371 8.296 118.857 7.848 118.223 7.568C117.607 7.26933 116.907 7.12 116.123 7.12C115.413 7.12 114.769 7.24133 114.191 7.484C113.612 7.708 113.145 8.03467 112.791 8.464C112.399 8.89333 112.091 9.416 111.867 10.032C111.661 10.648 111.531 11.3107 111.475 12.02H120.771ZM124.58 0.399999H126.204V20H124.58V0.399999ZM124.58 18.628H126.204V20H124.58V18.628ZM124.58 0.399999H125.448V1.772H124.58V0.399999ZM129.284 6.084H130.88V10.032L130.796 9.724C130.871 8.86533 131.132 8.13733 131.58 7.54C132.047 6.94267 132.635 6.49467 133.344 6.196C134.053 5.87867 134.809 5.72 135.612 5.72C135.78 5.72 135.957 5.72933 136.144 5.748L136.088 7.288C135.92 7.26933 135.649 7.26 135.276 7.26C134.361 7.26 133.587 7.43733 132.952 7.792C132.317 8.14667 131.813 8.76267 131.44 9.64C131.085 10.5173 130.908 11.7027 130.908 13.196V20H129.284V6.084ZM138.889 25.74C138.571 25.74 138.254 25.712 137.937 25.656C137.619 25.6 137.302 25.5253 136.985 25.432L137.069 23.892C137.33 23.9853 137.601 24.06 137.881 24.116C138.161 24.1907 138.441 24.228 138.721 24.228C139.075 24.228 139.365 24.1347 139.589 23.948C139.813 23.7613 140.037 23.444 140.261 22.996C140.485 22.5667 140.783 21.8667 141.157 20.896C141.287 20.504 141.437 20.1027 141.605 19.692L141.549 21.12L135.725 6.084H137.461L141.017 15.716C141.129 16.0333 141.222 16.3133 141.297 16.556C141.39 16.7987 141.502 17.0973 141.633 17.452C141.819 17.9933 142.006 18.5347 142.193 19.076L141.913 19.188C142.099 18.6093 142.239 18.18 142.333 17.9C142.445 17.6013 142.594 17.172 142.781 16.612C142.893 16.3133 142.995 16.0147 143.089 15.716L146.533 6.084H148.241L142.333 22.044C141.997 22.9773 141.67 23.7053 141.353 24.228C141.054 24.7507 140.709 25.1333 140.317 25.376C139.925 25.6187 139.449 25.74 138.889 25.74ZM155.301 0.399999H156.981V20H155.301V0.399999ZM155.301 18.572H156.981V20H155.301V18.572ZM155.301 0.399999H156.981V1.828H155.301V0.399999ZM160.351 6.084H161.975V9.5L161.807 9.192C162.087 8.10933 162.628 7.26933 163.431 6.672C164.252 6.07467 165.316 5.776 166.623 5.776C167.5 5.776 168.265 5.90667 168.919 6.168C169.591 6.41067 170.16 6.76533 170.627 7.232C171.112 7.736 171.429 8.352 171.579 9.08C171.728 9.78933 171.803 10.62 171.803 11.572V20H170.123V11.852C170.123 10.956 170.076 10.2373 169.983 9.696C169.889 9.136 169.647 8.65067 169.255 8.24C168.9 7.82933 168.471 7.54933 167.967 7.4C167.481 7.25067 166.903 7.176 166.231 7.176C165.167 7.176 164.187 7.54 163.291 8.268C162.413 8.97733 161.975 10.2933 161.975 12.216V20H160.351V6.084ZM180.503 20.308C179.084 20.308 177.871 20.0093 176.863 19.412C175.855 18.8147 175.099 17.9747 174.595 16.892C174.091 15.7907 173.839 14.512 173.839 13.056C173.839 11.656 174.1 10.4053 174.623 9.304C175.164 8.20267 175.939 7.344 176.947 6.728C177.955 6.09333 179.149 5.776 180.531 5.776C182.155 5.776 183.461 6.20533 184.451 7.064C185.44 7.904 186.084 9.04267 186.383 10.48L184.815 10.788C184.553 9.63067 184.087 8.73467 183.415 8.1C182.743 7.46533 181.763 7.148 180.475 7.148C179.597 7.148 178.851 7.29733 178.235 7.596C177.619 7.876 177.105 8.28667 176.695 8.828C176.321 9.31333 176.051 9.92 175.883 10.648C175.715 11.376 175.631 12.1787 175.631 13.056C175.631 14.9227 176.013 16.3693 176.779 17.396C177.544 18.4227 178.785 18.936 180.503 18.936C181.753 18.936 182.743 18.6653 183.471 18.124C184.217 17.5827 184.712 16.7147 184.955 15.52L186.495 15.688C186.327 16.6213 185.972 17.4333 185.431 18.124C184.889 18.8147 184.199 19.356 183.359 19.748C182.519 20.1213 181.567 20.308 180.503 20.308ZM188.181 17.508H190.253V20H188.181V17.508Z" fill="black"/>
</svg>
