<svg width="406" height="112" viewBox="0 0 406 112" fill="none" xmlns="http://www.w3.org/2000/svg">
<path d="M351.309 0.400391H360.715L405.036 112H395.152L364.223 32.2859C363.691 30.5853 363.107 28.9379 362.469 27.3436C360.981 23.7299 359.812 20.8071 358.962 18.5751C358.218 16.3431 357.208 13.5266 355.933 10.1255H355.773C354.285 14.058 352.797 18.0437 351.309 22.0825C350.034 25.4836 348.758 28.8848 347.483 32.2859L316.873 112H306.988L351.309 0.400391ZM329.946 67.8382H383.035L386.224 76.1284H326.917L329.946 67.8382Z" fill="black"/>
<path d="M228.809 0.400391H298V8.85005H238.215V51.0983H292.101V59.3885H238.215V103.55H298V112H228.809V0.400391Z" fill="black"/>
<path d="M124.586 0.400391H134.949L180.067 72.1427C181.767 75.0124 183.521 77.8821 185.328 80.7518C187.241 84.0467 189.154 87.3415 191.067 90.6363C193.087 93.9312 195.053 97.3323 196.966 100.84H197.125C196.913 94.7814 196.753 88.4043 196.647 81.7084C196.541 74.9062 196.488 69.4856 196.488 65.4468V0.400391H205.734V112H194.575L148.022 37.3876C146.321 34.6241 144.408 31.4356 142.282 27.8219C140.476 24.8459 138.934 22.242 137.659 20.01C136.384 17.778 134.949 15.174 133.354 12.198H133.195C133.301 18.5751 133.408 23.8362 133.514 27.9813C133.726 32.0202 133.833 36.5373 133.833 41.5327V112H124.586V0.400391Z" fill="black"/>
<path d="M86.2852 0.400391H95.8508V112H86.2852V0.400391ZM86.2852 103.869H95.8508V112H86.2852V103.869ZM86.2852 0.400391H95.8508V8.53119H86.2852V0.400391Z" fill="black"/>
<path d="M0.96875 0.400391H10.5344V103.709H70.1603V112H0.96875V0.400391Z" fill="black"/>
</svg>
