<svg width="247" height="22" viewBox="0 0 247 22" fill="none" xmlns="http://www.w3.org/2000/svg">
<path d="M12.952 21H0.492V1.148H3.852V17.808H12.952V21ZM17.6499 21H14.2339V1.148H17.6499V21ZM37.6084 21H34.1084L24.3084 5.964V21H20.9484V1.148H25.2324L34.2484 15.232V1.148H37.6084V21ZM53.1887 21H40.9247V1.148H53.1887V4.284H44.2847V9.548H52.3487V12.6H44.2847V17.864H53.1887V21ZM69.0388 21L67.1628 16.016H58.7628L56.9148 21H53.3588L61.0868 1.148H64.9788L72.7068 21H69.0388ZM62.9628 4.788L59.9388 12.908H65.9868L62.9628 4.788ZM75.6545 15.008V13.72L78.9305 13.048V14.896C78.9305 17.248 80.2185 18.256 81.9825 18.256C83.7745 18.256 84.8945 17.052 84.8945 15.036V1.148H88.2545V14.952C88.2545 18.452 85.7905 21.42 82.0105 21.42C78.1185 21.42 75.6545 18.872 75.6545 15.008ZM103.617 21H91.3531V1.148H103.617V4.284H94.7131V9.548H102.777V12.6H94.7131V17.864H103.617V21ZM124.367 15.764L128.259 1.148H131.731L126.159 21H122.687L117.871 5.992L113.055 21H109.611L103.983 1.148H107.511L111.487 15.652L116.135 1.148H119.635L124.367 15.764ZM145.402 21H133.138V1.148H145.402V4.284H136.498V9.548H144.562V12.6H136.498V17.864H145.402V21ZM160.16 21H147.7V1.148H151.06V17.808H160.16V21ZM171.466 21L167.294 13.16H164.83V21H161.442V1.148H169.058C172.894 1.148 175.274 3.808 175.274 7.168C175.274 9.996 173.594 12.152 170.794 12.824L175.274 21H171.466ZM164.83 10.192H168.442C170.542 10.192 171.858 8.988 171.858 7.168C171.858 5.292 170.542 4.116 168.442 4.116H164.83V10.192ZM181.533 12.6L174.589 1.148H178.565L183.325 9.464L188.113 1.148H191.893L184.893 12.6V21H181.533V12.6ZM200.697 21H197.281V1.148H200.697V21ZM220.655 21H217.155L207.355 5.964V21H203.995V1.148H208.279L217.295 15.232V1.148H220.655V21ZM232.735 21.42C227.387 21.42 222.711 17.584 222.711 11.088C222.711 4.62 227.555 0.727999 232.707 0.727999C237.747 0.727999 240.743 3.696 241.639 7.168L238.475 8.232C237.859 5.824 236.039 3.892 232.707 3.892C229.431 3.892 226.155 6.272 226.155 11.088C226.155 15.708 229.347 18.2 232.735 18.2C236.067 18.2 237.971 16.072 238.643 13.832L241.723 14.84C240.827 18.2 237.803 21.42 232.735 21.42ZM241.872 18.9C241.872 17.64 242.88 16.604 244.14 16.604C245.4 16.604 246.436 17.64 246.436 18.9C246.436 20.16 245.4 21.168 244.14 21.168C242.88 21.168 241.872 20.16 241.872 18.9Z" fill="black"/>
</svg>
