<svg width="329" height="94" viewBox="0 0 329 94" fill="none" xmlns="http://www.w3.org/2000/svg">
<path d="M311.257 93.9996L302.388 70.4375H262.677L253.94 93.9996H237.129L273.663 0.148438H292.063L328.597 93.9996H311.257ZM282.532 17.3567L268.236 55.7443H296.828L282.532 17.3567Z" fill="black"/>
<path d="M232.65 93.9996H174.672V0.148438H232.65V14.974H190.556V39.8598H228.679V54.2882H190.556V79.174H232.65V93.9996Z" fill="black"/>
<path d="M167.007 93.9996H150.461L104.131 22.9163V93.9996H88.2461V0.148438H108.499L151.122 66.7311V0.148438H167.007V93.9996Z" fill="black"/>
<path d="M80.7587 93.9996H64.6094V0.148438H80.7587V93.9996Z" fill="black"/>
<path d="M59.6551 93.9996H0.75V0.148438H16.6345V78.9093H59.6551V93.9996Z" fill="black"/>
</svg>
